<?xml version="1.0" encoding="UTF-8" standalone="no"?>
<!DOCTYPE svg PUBLIC "-//W3C//DTD SVG 1.1//EN"
 "http://www.w3.org/Graphics/SVG/1.1/DTD/svg11.dtd">
<!-- Generated by graphviz version 2.43.0 (0)
 -->
<!-- Title: 1 Pages: 1 -->
<svg width="760pt" height="441pt"
 viewBox="0.00 0.00 760.45 441.01" xmlns="http://www.w3.org/2000/svg" xmlns:xlink="http://www.w3.org/1999/xlink">
<g id="graph0" class="graph" transform="scale(1 1) rotate(0) translate(4 437.01)">
<title>1</title>
<polygon fill="white" stroke="transparent" points="-4,4 -4,-437.01 756.45,-437.01 756.45,4 -4,4"/>
<!-- n14 -->
<g id="node1" class="node">
<title>n14</title>
<ellipse fill="none" stroke="black" cx="28.6" cy="-110.5" rx="28.7" ry="28.7"/>
<text text-anchor="middle" x="28.6" y="-106.8" font-family="Times,serif" font-size="14.00">n14</text>
</g>
<!-- n15 -->
<g id="node2" class="node">
<title>n15</title>
<ellipse fill="none" stroke="black" cx="46.01" cy="-202.81" rx="28.7" ry="28.7"/>
<text text-anchor="middle" x="46.01" y="-199.11" font-family="Times,serif" font-size="14.00">n15</text>
</g>
<!-- n14&#45;&#45;n15 -->
<g id="edge1" class="edge">
<title>n14&#45;&#45;n15</title>
<path fill="none" stroke="black" d="M33.92,-138.69C36.06,-150.04 38.52,-163.1 40.66,-174.46"/>
</g>
<!-- n13 -->
<g id="node3" class="node">
<title>n13</title>
<ellipse fill="none" stroke="black" cx="68.26" cy="-28.6" rx="28.7" ry="28.7"/>
<text text-anchor="middle" x="68.26" y="-24.9" font-family="Times,serif" font-size="14.00">n13</text>
</g>
<!-- n13&#45;&#45;n14 -->
<g id="edge3" class="edge">
<title>n13&#45;&#45;n14</title>
<path fill="none" stroke="black" d="M55.71,-54.51C51.04,-64.17 45.73,-75.11 41.07,-84.75"/>
</g>
<!-- n13&#45;&#45;n15 -->
<g id="edge2" class="edge">
<title>n13&#45;&#45;n15</title>
<path fill="none" stroke="black" d="M64.64,-56.97C60.51,-89.27 53.81,-141.74 49.67,-174.15"/>
</g>
<!-- n12 -->
<g id="node4" class="node">
<title>n12</title>
<ellipse fill="none" stroke="black" cx="147.55" cy="-204.62" rx="28.7" ry="28.7"/>
<text text-anchor="middle" x="147.55" y="-200.92" font-family="Times,serif" font-size="14.00">n12</text>
</g>
<!-- n12&#45;&#45;n14 -->
<g id="edge5" class="edge">
<title>n12&#45;&#45;n14</title>
<path fill="none" stroke="black" d="M124.89,-186.69C103.73,-169.95 72.3,-145.08 51.17,-128.36"/>
</g>
<!-- n12&#45;&#45;n15 -->
<g id="edge4" class="edge">
<title>n12&#45;&#45;n15</title>
<path fill="none" stroke="black" d="M118.72,-204.1C105,-203.86 88.63,-203.57 74.9,-203.32"/>
</g>
<!-- n12&#45;&#45;n13 -->
<g id="edge6" class="edge">
<title>n12&#45;&#45;n13</title>
<path fill="none" stroke="black" d="M135.68,-178.27C120.69,-144.99 95.05,-88.07 80.08,-54.84"/>
</g>
<!-- n11 -->
<g id="node5" class="node">
<title>n11</title>
<ellipse fill="none" stroke="black" cx="180.44" cy="-39.09" rx="28.7" ry="28.7"/>
<text text-anchor="middle" x="180.44" y="-35.39" font-family="Times,serif" font-size="14.00">n11</text>
</g>
<!-- n11&#45;&#45;n14 -->
<g id="edge8" class="edge">
<title>n11&#45;&#45;n14</title>
<path fill="none" stroke="black" d="M154.34,-51.37C126.44,-64.48 82.48,-85.16 54.61,-98.26"/>
</g>
<!-- n11&#45;&#45;n15 -->
<g id="edge7" class="edge">
<title>n11&#45;&#45;n15</title>
<path fill="none" stroke="black" d="M162.03,-61.51C136.28,-92.86 89.82,-149.45 64.19,-180.66"/>
</g>
<!-- n11&#45;&#45;n13 -->
<g id="edge9" class="edge">
<title>n11&#45;&#45;n13</title>
<path fill="none" stroke="black" d="M151.84,-36.42C134.96,-34.84 113.67,-32.85 96.81,-31.27"/>
</g>
<!-- n11&#45;&#45;n12 -->
<g id="edge10" class="edge">
<title>n11&#45;&#45;n12</title>
<path fill="none" stroke="black" d="M174.86,-67.17C168.81,-97.61 159.21,-145.91 153.15,-176.4"/>
</g>
<!-- n10 -->
<g id="node6" class="node">
<title>n10</title>
<ellipse fill="none" stroke="black" cx="207.7" cy="-139.42" rx="28.7" ry="28.7"/>
<text text-anchor="middle" x="207.7" y="-135.72" font-family="Times,serif" font-size="14.00">n10</text>
</g>
<!-- n10&#45;&#45;n14 -->
<g id="edge12" class="edge">
<title>n10&#45;&#45;n14</title>
<path fill="none" stroke="black" d="M179.32,-134.84C145.79,-129.42 90.32,-120.47 56.84,-115.06"/>
</g>
<!-- n10&#45;&#45;n15 -->
<g id="edge11" class="edge">
<title>n10&#45;&#45;n15</title>
<path fill="none" stroke="black" d="M181,-149.89C151.04,-161.63 102.72,-180.57 72.75,-192.32"/>
</g>
<!-- n10&#45;&#45;n13 -->
<g id="edge13" class="edge">
<title>n10&#45;&#45;n13</title>
<path fill="none" stroke="black" d="M185.3,-121.62C159.43,-101.06 117.11,-67.42 91.07,-46.73"/>
</g>
<!-- n10&#45;&#45;n12 -->
<g id="edge14" class="edge">
<title>n10&#45;&#45;n12</title>
<path fill="none" stroke="black" d="M188,-160.77C181.29,-168.05 173.79,-176.18 167.08,-183.45"/>
</g>
<!-- n10&#45;&#45;n11 -->
<g id="edge15" class="edge">
<title>n10&#45;&#45;n11</title>
<path fill="none" stroke="black" d="M200.18,-111.74C196.4,-97.82 191.82,-80.99 188.03,-67.03"/>
</g>
<!-- n9 -->
<g id="node7" class="node">
<title>n9</title>
<ellipse fill="none" stroke="black" cx="321.83" cy="-131.45" rx="23" ry="23"/>
<text text-anchor="middle" x="321.83" y="-127.75" font-family="Times,serif" font-size="14.00">n9</text>
</g>
<!-- n9&#45;&#45;n12 -->
<g id="edge16" class="edge">
<title>n9&#45;&#45;n12</title>
<path fill="none" stroke="black" d="M300.81,-140.28C269.03,-153.62 208.79,-178.91 174.05,-193.49"/>
</g>
<!-- n9&#45;&#45;n11 -->
<g id="edge17" class="edge">
<title>n9&#45;&#45;n11</title>
<path fill="none" stroke="black" d="M302.76,-118.99C277.28,-102.35 232.13,-72.86 204.39,-54.74"/>
</g>
<!-- n9&#45;&#45;n10 -->
<g id="edge18" class="edge">
<title>n9&#45;&#45;n10</title>
<path fill="none" stroke="black" d="M299.01,-133.05C281.05,-134.3 255.92,-136.05 236.57,-137.41"/>
</g>
<!-- n8 -->
<g id="node8" class="node">
<title>n8</title>
<ellipse fill="none" stroke="black" cx="355.38" cy="-37.23" rx="23" ry="23"/>
<text text-anchor="middle" x="355.38" y="-33.53" font-family="Times,serif" font-size="14.00">n8</text>
</g>
<!-- n8&#45;&#45;n11 -->
<g id="edge19" class="edge">
<title>n8&#45;&#45;n11</title>
<path fill="none" stroke="black" d="M332.51,-37.47C300.83,-37.81 243.62,-38.42 209.12,-38.78"/>
</g>
<!-- n8&#45;&#45;n10 -->
<g id="edge20" class="edge">
<title>n8&#45;&#45;n10</title>
<path fill="none" stroke="black" d="M336.38,-50.38C309.5,-68.98 260.42,-102.94 231.26,-123.12"/>
</g>
<!-- n8&#45;&#45;n9 -->
<g id="edge21" class="edge">
<title>n8&#45;&#45;n9</title>
<path fill="none" stroke="black" d="M347.6,-59.08C342.18,-74.3 334.98,-94.52 329.57,-109.72"/>
</g>
<!-- n7 -->
<g id="node9" class="node">
<title>n7</title>
<ellipse fill="none" stroke="black" cx="371.34" cy="-223.56" rx="23" ry="23"/>
<text text-anchor="middle" x="371.34" y="-219.86" font-family="Times,serif" font-size="14.00">n7</text>
</g>
<!-- n7&#45;&#45;n10 -->
<g id="edge22" class="edge">
<title>n7&#45;&#45;n10</title>
<path fill="none" stroke="black" d="M350.95,-213.08C321.13,-197.75 265.67,-169.23 233.2,-152.53"/>
</g>
<!-- n7&#45;&#45;n9 -->
<g id="edge23" class="edge">
<title>n7&#45;&#45;n9</title>
<path fill="none" stroke="black" d="M360.35,-203.12C352.09,-187.75 340.83,-166.8 332.62,-151.52"/>
</g>
<!-- n7&#45;&#45;n8 -->
<g id="edge24" class="edge">
<title>n7&#45;&#45;n8</title>
<path fill="none" stroke="black" d="M369.38,-200.71C366.31,-164.85 360.39,-95.77 357.33,-59.97"/>
</g>
<!-- n6 -->
<g id="node10" class="node">
<title>n6</title>
<ellipse fill="none" stroke="black" cx="481.74" cy="-76.07" rx="23" ry="23"/>
<text text-anchor="middle" x="481.74" y="-72.37" font-family="Times,serif" font-size="14.00">n6</text>
</g>
<!-- n6&#45;&#45;n9 -->
<g id="edge25" class="edge">
<title>n6&#45;&#45;n9</title>
<path fill="none" stroke="black" d="M460.18,-83.54C429.65,-94.11 374.18,-113.32 343.57,-123.92"/>
</g>
<!-- n6&#45;&#45;n8 -->
<g id="edge26" class="edge">
<title>n6&#45;&#45;n8</title>
<path fill="none" stroke="black" d="M459.73,-69.31C436.54,-62.18 400.24,-51.02 377.14,-43.92"/>
</g>
<!-- n6&#45;&#45;n7 -->
<g id="edge27" class="edge">
<title>n6&#45;&#45;n7</title>
<path fill="none" stroke="black" d="M467.98,-94.46C446.83,-122.72 406.53,-176.55 385.27,-204.95"/>
</g>
<!-- n5 -->
<g id="node11" class="node">
<title>n5</title>
<ellipse fill="none" stroke="black" cx="491.73" cy="-166.83" rx="23" ry="23"/>
<text text-anchor="middle" x="491.73" y="-163.13" font-family="Times,serif" font-size="14.00">n5</text>
</g>
<!-- n5&#45;&#45;n9 -->
<g id="edge28" class="edge">
<title>n5&#45;&#45;n9</title>
<path fill="none" stroke="black" d="M469.17,-162.13C436.58,-155.35 376.7,-142.88 344.21,-136.11"/>
</g>
<!-- n5&#45;&#45;n8 -->
<g id="edge29" class="edge">
<title>n5&#45;&#45;n8</title>
<path fill="none" stroke="black" d="M475.01,-150.94C448.84,-126.07 398.49,-78.2 372.24,-53.25"/>
</g>
<!-- n5&#45;&#45;n7 -->
<g id="edge30" class="edge">
<title>n5&#45;&#45;n7</title>
<path fill="none" stroke="black" d="M471.03,-176.59C448.98,-186.98 414.27,-203.33 392.17,-213.75"/>
</g>
<!-- n5&#45;&#45;n6 -->
<g id="edge31" class="edge">
<title>n5&#45;&#45;n6</title>
<path fill="none" stroke="black" d="M489.21,-143.93C487.69,-130.17 485.77,-112.73 484.26,-98.97"/>
</g>
<!-- n4 -->
<g id="node12" class="node">
<title>n4</title>
<ellipse fill="none" stroke="black" cx="526.53" cy="-275.92" rx="23" ry="23"/>
<text text-anchor="middle" x="526.53" y="-272.22" font-family="Times,serif" font-size="14.00">n4</text>
</g>
<!-- n4&#45;&#45;n7 -->
<g id="edge32" class="edge">
<title>n4&#45;&#45;n7</title>
<path fill="none" stroke="black" d="M504.95,-268.64C475.39,-258.67 422.59,-240.85 392.99,-230.86"/>
</g>
<!-- n4&#45;&#45;n6 -->
<g id="edge33" class="edge">
<title>n4&#45;&#45;n6</title>
<path fill="none" stroke="black" d="M521.48,-253.38C512.86,-214.9 495.39,-136.96 486.77,-98.53"/>
</g>
<!-- n4&#45;&#45;n5 -->
<g id="edge34" class="edge">
<title>n4&#45;&#45;n5</title>
<path fill="none" stroke="black" d="M519.57,-254.11C513.5,-235.08 504.74,-207.62 498.67,-188.61"/>
</g>
<!-- n3 -->
<g id="node13" class="node">
<title>n3</title>
<ellipse fill="none" stroke="black" cx="659.27" cy="-199.22" rx="23" ry="23"/>
<text text-anchor="middle" x="659.27" y="-195.52" font-family="Times,serif" font-size="14.00">n3</text>
</g>
<!-- n3&#45;&#45;n5 -->
<g id="edge35" class="edge">
<title>n3&#45;&#45;n5</title>
<path fill="none" stroke="black" d="M636.68,-194.85C604.61,-188.65 546.25,-177.37 514.23,-171.18"/>
</g>
<!-- n3&#45;&#45;n4 -->
<g id="edge36" class="edge">
<title>n3&#45;&#45;n4</title>
<path fill="none" stroke="black" d="M639.4,-210.7C614.38,-225.16 571.63,-249.86 546.54,-264.36"/>
</g>
<!-- n2 -->
<g id="node14" class="node">
<title>n2</title>
<ellipse fill="none" stroke="black" cx="606.23" cy="-310.57" rx="23" ry="23"/>
<text text-anchor="middle" x="606.23" y="-306.87" font-family="Times,serif" font-size="14.00">n2</text>
</g>
<!-- n2&#45;&#45;n5 -->
<g id="edge37" class="edge">
<title>n2&#45;&#45;n5</title>
<path fill="none" stroke="black" d="M591.96,-292.66C570.02,-265.12 528.23,-212.65 506.18,-184.97"/>
</g>
<!-- n2&#45;&#45;n4 -->
<g id="edge38" class="edge">
<title>n2&#45;&#45;n4</title>
<path fill="none" stroke="black" d="M585.29,-301.47C573.67,-296.42 559.25,-290.15 547.61,-285.09"/>
</g>
<!-- n2&#45;&#45;n3 -->
<g id="edge39" class="edge">
<title>n2&#45;&#45;n3</title>
<path fill="none" stroke="black" d="M616.08,-289.89C625.61,-269.89 639.97,-239.76 649.47,-219.79"/>
</g>
<!-- n1 -->
<g id="node15" class="node">
<title>n1</title>
<ellipse fill="none" stroke="black" cx="638.67" cy="-410.26" rx="23" ry="23"/>
<text text-anchor="middle" x="638.67" y="-406.56" font-family="Times,serif" font-size="14.00">n1</text>
</g>
<!-- n1&#45;&#45;n4 -->
<g id="edge40" class="edge">
<title>n1&#45;&#45;n4</title>
<path fill="none" stroke="black" d="M624.01,-392.7C602.52,-366.95 562.69,-319.24 541.2,-293.49"/>
</g>
<!-- n1&#45;&#45;n3 -->
<g id="edge41" class="edge">
<title>n1&#45;&#45;n3</title>
<path fill="none" stroke="black" d="M640.91,-387.27C644.87,-346.68 653.07,-262.75 657.03,-222.18"/>
</g>
<!-- n1&#45;&#45;n2 -->
<g id="edge42" class="edge">
<title>n1&#45;&#45;n2</title>
<path fill="none" stroke="black" d="M631.47,-388.13C626.05,-371.5 618.68,-348.83 613.3,-332.29"/>
</g>
<!-- n0 -->
<g id="node16" class="node">
<title>n0</title>
<ellipse fill="none" stroke="black" cx="729.7" cy="-305.64" rx="23" ry="23"/>
<text text-anchor="middle" x="729.7" y="-301.94" font-family="Times,serif" font-size="14.00">n0</text>
</g>
<!-- n0&#45;&#45;n4 -->
<g id="edge43" class="edge">
<title>n0&#45;&#45;n4</title>
<path fill="none" stroke="black" d="M707.18,-302.35C668.13,-296.63 588.28,-284.95 549.15,-279.23"/>
</g>
<!-- n0&#45;&#45;n3 -->
<g id="edge44" class="edge">
<title>n0&#45;&#45;n3</title>
<path fill="none" stroke="black" d="M717.11,-286.61C704.37,-267.36 684.78,-237.76 671.99,-218.44"/>
</g>
<!-- n0&#45;&#45;n2 -->
<g id="edge45" class="edge">
<title>n0&#45;&#45;n2</title>
<path fill="none" stroke="black" d="M706.77,-306.56C684.59,-307.44 651.18,-308.78 629.04,-309.66"/>
</g>
<!-- n0&#45;&#45;n1 -->
<g id="edge46" class="edge">
<title>n0&#45;&#45;n1</title>
<path fill="none" stroke="black" d="M714.67,-322.92C697.8,-342.3 670.6,-373.56 653.72,-392.96"/>
</g>
</g>
</svg>
