<?xml version="1.0" standalone="yes"?>
<!-- SVG graphic -->
<svg xmlns='http://www.w3.org/2000/svg' xmlns:xlink='http://www.w3.org/1999/xlink'
width="95px" height="95px" preserveAspectRatio="xMinYMin meet" viewBox="0 0 95 95" version="1.1">
<rect x="5" y="0" width="2.5" height="2.5" fill="rgb(176,0,78)" opacity="1"/>
<rect x="10" y="0" width="2.5" height="2.5" fill="rgb(132,0,122)" opacity="1"/>
<rect x="15" y="0" width="2.5" height="2.5" fill="rgb(67,0,187)" opacity="1"/>
<rect x="20" y="0" width="2.5" height="2.5" fill="rgb(31,0,223)" opacity="1"/>
<rect x="10" y="5" width="2.5" height="2.5" fill="rgb(140,0,114)" opacity="1"/>
<rect x="15" y="5" width="2.5" height="2.5" fill="rgb(83,0,171)" opacity="1"/>
<rect x="20" y="5" width="2.5" height="2.5" fill="rgb(33,0,221)" opacity="1"/>
<rect x="15" y="10" width="2.5" height="2.5" fill="rgb(155,0,99)" opacity="1"/>
<rect x="20" y="10" width="2.5" height="2.5" fill="rgb(64,0,190)" opacity="1"/>
<rect x="25" y="10" width="2.5" height="2.5" fill="rgb(36,0,218)" opacity="1"/>
<rect x="20" y="15" width="2.5" height="2.5" fill="rgb(111,0,143)" opacity="1"/>
<rect x="25" y="15" width="2.5" height="2.5" fill="rgb(56,0,198)" opacity="1"/>
<rect x="25" y="20" width="2.5" height="2.5" fill="rgb(133,0,121)" opacity="1"/>
<rect x="30" y="20" width="2.5" height="2.5" fill="rgb(53,0,201)" opacity="1"/>
<rect x="35" y="20" width="2.5" height="2.5" fill="rgb(45,0,209)" opacity="1"/>
<rect x="30" y="25" width="2.5" height="2.5" fill="rgb(125,0,129)" opacity="1"/>
<rect x="35" y="25" width="2.5" height="2.5" fill="rgb(86,0,168)" opacity="1"/>
<rect x="40" y="25" width="2.5" height="2.5" fill="rgb(40,0,214)" opacity="1"/>
<rect x="45" y="25" width="2.5" height="2.5" fill="rgb(31,0,223)" opacity="1"/>
<rect x="35" y="30" width="2.5" height="2.5" fill="rgb(174,0,80)" opacity="1"/>
<rect x="40" y="30" width="2.5" height="2.5" fill="rgb(96,0,158)" opacity="1"/>
<rect x="45" y="30" width="2.5" height="2.5" fill="rgb(67,0,187)" opacity="1"/>
<rect x="40" y="35" width="2.5" height="2.5" fill="rgb(141,0,113)" opacity="1"/>
<rect x="45" y="35" width="2.5" height="2.5" fill="rgb(116,0,138)" opacity="1"/>
<rect x="50" y="35" width="2.5" height="2.5" fill="rgb(29,0,225)" opacity="1"/>
<rect x="45" y="40" width="2.5" height="2.5" fill="rgb(226,0,28)" opacity="1"/>
<rect x="50" y="40" width="2.5" height="2.5" fill="rgb(64,0,190)" opacity="1"/>
<rect x="55" y="40" width="2.5" height="2.5" fill="rgb(34,0,220)" opacity="1"/>
<rect x="50" y="45" width="2.5" height="2.5" fill="rgb(130,0,124)" opacity="1"/>
<rect x="55" y="45" width="2.5" height="2.5" fill="rgb(88,0,166)" opacity="1"/>
<rect x="60" y="45" width="2.5" height="2.5" fill="rgb(31,0,223)" opacity="1"/>
<rect x="55" y="50" width="2.5" height="2.5" fill="rgb(255,0,0)" opacity="1"/>
<rect x="60" y="50" width="2.5" height="2.5" fill="rgb(119,0,135)" opacity="1"/>
<rect x="65" y="50" width="2.5" height="2.5" fill="rgb(80,0,174)" opacity="1"/>
<rect x="70" y="50" width="2.5" height="2.5" fill="rgb(58,0,196)" opacity="1"/>
<rect x="75" y="50" width="2.5" height="2.5" fill="rgb(40,0,214)" opacity="1"/>
<rect x="60" y="55" width="2.5" height="2.5" fill="rgb(160,0,94)" opacity="1"/>
<rect x="65" y="55" width="2.5" height="2.5" fill="rgb(116,0,138)" opacity="1"/>
<rect x="70" y="55" width="2.5" height="2.5" fill="rgb(85,0,169)" opacity="1"/>
<rect x="75" y="55" width="2.5" height="2.5" fill="rgb(55,0,199)" opacity="1"/>
<rect x="65" y="60" width="2.5" height="2.5" fill="rgb(225,0,29)" opacity="1"/>
<rect x="70" y="60" width="2.5" height="2.5" fill="rgb(149,0,105)" opacity="1"/>
<rect x="75" y="60" width="2.5" height="2.5" fill="rgb(77,0,177)" opacity="1"/>
<rect x="70" y="65" width="2.5" height="2.5" fill="rgb(203,0,51)" opacity="1"/>
<rect x="75" y="65" width="2.5" height="2.5" fill="rgb(141,0,113)" opacity="1"/>
<rect x="75" y="70" width="2.5" height="2.5" fill="rgb(193,0,61)" opacity="1"/>
<text x="85" y="5" font-size="5" fill="black">0</text>
<text x="85" y="75" font-size="5" fill="black">16</text>
<polyline points="85,10,85,70" stroke="black" stroke-width="1" fill="none" opacity="1"/>
<text x="5" y="85" font-size="5" fill="black">0</text>
<text x="75" y="85" font-size="5" fill="black">16</text>
<polyline points="10,85,70,85" stroke="black" stroke-width="1" fill="none" opacity="1"/>
</svg>