<?xml version="1.0" standalone="yes"?>
<!-- SVG graphic -->
<svg xmlns='http://www.w3.org/2000/svg' xmlns:xlink='http://www.w3.org/1999/xlink'
width="95px" height="95px" preserveAspectRatio="xMinYMin meet" viewBox="0 0 95 95" version="1.1">
<rect x="5" y="0" width="2.5" height="2.5" fill="rgb(182,0,72)" opacity="1"/>
<rect x="10" y="0" width="2.5" height="2.5" fill="rgb(144,0,110)" opacity="1"/>
<rect x="15" y="0" width="2.5" height="2.5" fill="rgb(102,0,152)" opacity="1"/>
<rect x="20" y="0" width="2.5" height="2.5" fill="rgb(73,0,181)" opacity="1"/>
<rect x="25" y="0" width="2.5" height="2.5" fill="rgb(81,0,173)" opacity="1"/>
<rect x="30" y="0" width="2.5" height="2.5" fill="rgb(83,0,171)" opacity="1"/>
<rect x="35" y="0" width="2.5" height="2.5" fill="rgb(48,0,206)" opacity="1"/>
<rect x="40" y="0" width="2.5" height="2.5" fill="rgb(52,0,202)" opacity="1"/>
<rect x="45" y="0" width="2.5" height="2.5" fill="rgb(52,0,202)" opacity="1"/>
<rect x="50" y="0" width="2.5" height="2.5" fill="rgb(68,0,186)" opacity="1"/>
<rect x="55" y="0" width="2.5" height="2.5" fill="rgb(50,0,204)" opacity="1"/>
<rect x="60" y="0" width="2.5" height="2.5" fill="rgb(49,0,205)" opacity="1"/>
<rect x="65" y="0" width="2.5" height="2.5" fill="rgb(59,0,195)" opacity="1"/>
<rect x="70" y="0" width="2.5" height="2.5" fill="rgb(54,0,200)" opacity="1"/>
<rect x="75" y="0" width="2.5" height="2.5" fill="rgb(48,0,206)" opacity="1"/>
<rect x="10" y="5" width="2.5" height="2.5" fill="rgb(154,0,100)" opacity="1"/>
<rect x="15" y="5" width="2.5" height="2.5" fill="rgb(110,0,144)" opacity="1"/>
<rect x="20" y="5" width="2.5" height="2.5" fill="rgb(69,0,185)" opacity="1"/>
<rect x="25" y="5" width="2.5" height="2.5" fill="rgb(60,0,194)" opacity="1"/>
<rect x="30" y="5" width="2.5" height="2.5" fill="rgb(74,0,180)" opacity="1"/>
<rect x="35" y="5" width="2.5" height="2.5" fill="rgb(64,0,190)" opacity="1"/>
<rect x="40" y="5" width="2.5" height="2.5" fill="rgb(59,0,195)" opacity="1"/>
<rect x="45" y="5" width="2.5" height="2.5" fill="rgb(45,0,209)" opacity="1"/>
<rect x="50" y="5" width="2.5" height="2.5" fill="rgb(54,0,200)" opacity="1"/>
<rect x="55" y="5" width="2.5" height="2.5" fill="rgb(68,0,186)" opacity="1"/>
<rect x="60" y="5" width="2.5" height="2.5" fill="rgb(62,0,192)" opacity="1"/>
<rect x="65" y="5" width="2.5" height="2.5" fill="rgb(60,0,194)" opacity="1"/>
<rect x="70" y="5" width="2.5" height="2.5" fill="rgb(55,0,199)" opacity="1"/>
<rect x="75" y="5" width="2.5" height="2.5" fill="rgb(45,0,209)" opacity="1"/>
<rect x="15" y="10" width="2.5" height="2.5" fill="rgb(161,0,93)" opacity="1"/>
<rect x="20" y="10" width="2.5" height="2.5" fill="rgb(95,0,159)" opacity="1"/>
<rect x="25" y="10" width="2.5" height="2.5" fill="rgb(78,0,176)" opacity="1"/>
<rect x="30" y="10" width="2.5" height="2.5" fill="rgb(81,0,173)" opacity="1"/>
<rect x="35" y="10" width="2.5" height="2.5" fill="rgb(54,0,200)" opacity="1"/>
<rect x="40" y="10" width="2.5" height="2.5" fill="rgb(55,0,199)" opacity="1"/>
<rect x="45" y="10" width="2.5" height="2.5" fill="rgb(45,0,209)" opacity="1"/>
<rect x="50" y="10" width="2.5" height="2.5" fill="rgb(55,0,199)" opacity="1"/>
<rect x="55" y="10" width="2.5" height="2.5" fill="rgb(67,0,187)" opacity="1"/>
<rect x="60" y="10" width="2.5" height="2.5" fill="rgb(46,0,208)" opacity="1"/>
<rect x="65" y="10" width="2.5" height="2.5" fill="rgb(44,0,210)" opacity="1"/>
<rect x="70" y="10" width="2.5" height="2.5" fill="rgb(55,0,199)" opacity="1"/>
<rect x="75" y="10" width="2.5" height="2.5" fill="rgb(41,0,213)" opacity="1"/>
<rect x="20" y="15" width="2.5" height="2.5" fill="rgb(126,0,128)" opacity="1"/>
<rect x="25" y="15" width="2.5" height="2.5" fill="rgb(98,0,156)" opacity="1"/>
<rect x="30" y="15" width="2.5" height="2.5" fill="rgb(58,0,196)" opacity="1"/>
<rect x="35" y="15" width="2.5" height="2.5" fill="rgb(54,0,200)" opacity="1"/>
<rect x="40" y="15" width="2.5" height="2.5" fill="rgb(53,0,201)" opacity="1"/>
<rect x="45" y="15" width="2.5" height="2.5" fill="rgb(45,0,209)" opacity="1"/>
<rect x="50" y="15" width="2.5" height="2.5" fill="rgb(55,0,199)" opacity="1"/>
<rect x="55" y="15" width="2.5" height="2.5" fill="rgb(44,0,210)" opacity="1"/>
<rect x="60" y="15" width="2.5" height="2.5" fill="rgb(40,0,214)" opacity="1"/>
<rect x="65" y="15" width="2.5" height="2.5" fill="rgb(49,0,205)" opacity="1"/>
<rect x="70" y="15" width="2.5" height="2.5" fill="rgb(48,0,206)" opacity="1"/>
<rect x="75" y="15" width="2.5" height="2.5" fill="rgb(52,0,202)" opacity="1"/>
<rect x="25" y="20" width="2.5" height="2.5" fill="rgb(147,0,107)" opacity="1"/>
<rect x="30" y="20" width="2.5" height="2.5" fill="rgb(111,0,143)" opacity="1"/>
<rect x="35" y="20" width="2.5" height="2.5" fill="rgb(100,0,154)" opacity="1"/>
<rect x="40" y="20" width="2.5" height="2.5" fill="rgb(73,0,181)" opacity="1"/>
<rect x="45" y="20" width="2.5" height="2.5" fill="rgb(68,0,186)" opacity="1"/>
<rect x="50" y="20" width="2.5" height="2.5" fill="rgb(65,0,189)" opacity="1"/>
<rect x="55" y="20" width="2.5" height="2.5" fill="rgb(63,0,191)" opacity="1"/>
<rect x="60" y="20" width="2.5" height="2.5" fill="rgb(54,0,200)" opacity="1"/>
<rect x="65" y="20" width="2.5" height="2.5" fill="rgb(45,0,209)" opacity="1"/>
<rect x="70" y="20" width="2.5" height="2.5" fill="rgb(54,0,200)" opacity="1"/>
<rect x="75" y="20" width="2.5" height="2.5" fill="rgb(60,0,194)" opacity="1"/>
<rect x="30" y="25" width="2.5" height="2.5" fill="rgb(156,0,98)" opacity="1"/>
<rect x="35" y="25" width="2.5" height="2.5" fill="rgb(123,0,131)" opacity="1"/>
<rect x="40" y="25" width="2.5" height="2.5" fill="rgb(90,0,164)" opacity="1"/>
<rect x="45" y="25" width="2.5" height="2.5" fill="rgb(83,0,171)" opacity="1"/>
<rect x="50" y="25" width="2.5" height="2.5" fill="rgb(73,0,181)" opacity="1"/>
<rect x="55" y="25" width="2.5" height="2.5" fill="rgb(69,0,185)" opacity="1"/>
<rect x="60" y="25" width="2.5" height="2.5" fill="rgb(65,0,189)" opacity="1"/>
<rect x="65" y="25" width="2.5" height="2.5" fill="rgb(49,0,205)" opacity="1"/>
<rect x="70" y="25" width="2.5" height="2.5" fill="rgb(57,0,197)" opacity="1"/>
<rect x="75" y="25" width="2.5" height="2.5" fill="rgb(40,0,214)" opacity="1"/>
<rect x="35" y="30" width="2.5" height="2.5" fill="rgb(183,0,71)" opacity="1"/>
<rect x="40" y="30" width="2.5" height="2.5" fill="rgb(125,0,129)" opacity="1"/>
<rect x="45" y="30" width="2.5" height="2.5" fill="rgb(112,0,142)" opacity="1"/>
<rect x="50" y="30" width="2.5" height="2.5" fill="rgb(86,0,168)" opacity="1"/>
<rect x="55" y="30" width="2.5" height="2.5" fill="rgb(78,0,176)" opacity="1"/>
<rect x="60" y="30" width="2.5" height="2.5" fill="rgb(60,0,194)" opacity="1"/>
<rect x="65" y="30" width="2.5" height="2.5" fill="rgb(63,0,191)" opacity="1"/>
<rect x="70" y="30" width="2.5" height="2.5" fill="rgb(45,0,209)" opacity="1"/>
<rect x="75" y="30" width="2.5" height="2.5" fill="rgb(49,0,205)" opacity="1"/>
<rect x="40" y="35" width="2.5" height="2.5" fill="rgb(156,0,98)" opacity="1"/>
<rect x="45" y="35" width="2.5" height="2.5" fill="rgb(143,0,111)" opacity="1"/>
<rect x="50" y="35" width="2.5" height="2.5" fill="rgb(96,0,158)" opacity="1"/>
<rect x="55" y="35" width="2.5" height="2.5" fill="rgb(90,0,164)" opacity="1"/>
<rect x="60" y="35" width="2.5" height="2.5" fill="rgb(81,0,173)" opacity="1"/>
<rect x="65" y="35" width="2.5" height="2.5" fill="rgb(62,0,192)" opacity="1"/>
<rect x="70" y="35" width="2.5" height="2.5" fill="rgb(60,0,194)" opacity="1"/>
<rect x="75" y="35" width="2.5" height="2.5" fill="rgb(57,0,197)" opacity="1"/>
<rect x="45" y="40" width="2.5" height="2.5" fill="rgb(219,0,35)" opacity="1"/>
<rect x="50" y="40" width="2.5" height="2.5" fill="rgb(101,0,153)" opacity="1"/>
<rect x="55" y="40" width="2.5" height="2.5" fill="rgb(98,0,156)" opacity="1"/>
<rect x="60" y="40" width="2.5" height="2.5" fill="rgb(74,0,180)" opacity="1"/>
<rect x="65" y="40" width="2.5" height="2.5" fill="rgb(71,0,183)" opacity="1"/>
<rect x="70" y="40" width="2.5" height="2.5" fill="rgb(58,0,196)" opacity="1"/>
<rect x="75" y="40" width="2.5" height="2.5" fill="rgb(54,0,200)" opacity="1"/>
<rect x="50" y="45" width="2.5" height="2.5" fill="rgb(159,0,95)" opacity="1"/>
<rect x="55" y="45" width="2.5" height="2.5" fill="rgb(126,0,128)" opacity="1"/>
<rect x="60" y="45" width="2.5" height="2.5" fill="rgb(72,0,182)" opacity="1"/>
<rect x="65" y="45" width="2.5" height="2.5" fill="rgb(72,0,182)" opacity="1"/>
<rect x="70" y="45" width="2.5" height="2.5" fill="rgb(63,0,191)" opacity="1"/>
<rect x="75" y="45" width="2.5" height="2.5" fill="rgb(46,0,208)" opacity="1"/>
<rect x="55" y="50" width="2.5" height="2.5" fill="rgb(255,0,0)" opacity="1"/>
<rect x="60" y="50" width="2.5" height="2.5" fill="rgb(147,0,107)" opacity="1"/>
<rect x="65" y="50" width="2.5" height="2.5" fill="rgb(123,0,131)" opacity="1"/>
<rect x="70" y="50" width="2.5" height="2.5" fill="rgb(101,0,153)" opacity="1"/>
<rect x="75" y="50" width="2.5" height="2.5" fill="rgb(68,0,186)" opacity="1"/>
<rect x="60" y="55" width="2.5" height="2.5" fill="rgb(185,0,69)" opacity="1"/>
<rect x="65" y="55" width="2.5" height="2.5" fill="rgb(140,0,114)" opacity="1"/>
<rect x="70" y="55" width="2.5" height="2.5" fill="rgb(121,0,133)" opacity="1"/>
<rect x="75" y="55" width="2.5" height="2.5" fill="rgb(93,0,161)" opacity="1"/>
<rect x="65" y="60" width="2.5" height="2.5" fill="rgb(230,0,24)" opacity="1"/>
<rect x="70" y="60" width="2.5" height="2.5" fill="rgb(159,0,95)" opacity="1"/>
<rect x="75" y="60" width="2.5" height="2.5" fill="rgb(109,0,145)" opacity="1"/>
<rect x="70" y="65" width="2.5" height="2.5" fill="rgb(209,0,45)" opacity="1"/>
<rect x="75" y="65" width="2.5" height="2.5" fill="rgb(148,0,106)" opacity="1"/>
<rect x="75" y="70" width="2.5" height="2.5" fill="rgb(195,0,59)" opacity="1"/>
<text x="85" y="5" font-size="5" fill="black">0</text>
<text x="85" y="75" font-size="5" fill="black">16</text>
<polyline points="85,10,85,70" stroke="black" stroke-width="1" fill="none" opacity="1"/>
<text x="5" y="85" font-size="5" fill="black">0</text>
<text x="75" y="85" font-size="5" fill="black">16</text>
<polyline points="10,85,70,85" stroke="black" stroke-width="1" fill="none" opacity="1"/>
</svg>