<?xml version="1.0" encoding="UTF-8" standalone="no"?>
<!DOCTYPE svg PUBLIC "-//W3C//DTD SVG 1.1//EN"
 "http://www.w3.org/Graphics/SVG/1.1/DTD/svg11.dtd">
<!-- Generated by graphviz version 2.43.0 (0)
 -->
<!-- Title: 1 Pages: 1 -->
<svg width="355pt" height="357pt"
 viewBox="0.00 0.00 354.72 357.26" xmlns="http://www.w3.org/2000/svg" xmlns:xlink="http://www.w3.org/1999/xlink">
<g id="graph0" class="graph" transform="scale(1 1) rotate(0) translate(4 353.26)">
<title>1</title>
<polygon fill="white" stroke="transparent" points="-4,4 -4,-353.26 350.72,-353.26 350.72,4 -4,4"/>
<!-- n14 -->
<g id="node1" class="node">
<title>n14</title>
<ellipse fill="none" stroke="black" cx="28.6" cy="-162.18" rx="28.7" ry="28.7"/>
<text text-anchor="middle" x="28.6" y="-158.48" font-family="Times,serif" font-size="14.00">n14</text>
</g>
<!-- n15 -->
<g id="node2" class="node">
<title>n15</title>
<ellipse fill="none" stroke="black" cx="302.84" cy="-238.5" rx="28.7" ry="28.7"/>
<text text-anchor="middle" x="302.84" y="-234.8" font-family="Times,serif" font-size="14.00">n15</text>
</g>
<!-- n14&#45;&#45;n15 -->
<g id="edge1" class="edge">
<title>n14&#45;&#45;n15</title>
<path fill="none" stroke="black" d="M56.15,-169.84C108.58,-184.44 222.16,-216.05 274.9,-230.72"/>
</g>
<!-- n13 -->
<g id="node3" class="node">
<title>n13</title>
<ellipse fill="none" stroke="black" cx="155.08" cy="-28.6" rx="28.7" ry="28.7"/>
<text text-anchor="middle" x="155.08" y="-24.9" font-family="Times,serif" font-size="14.00">n13</text>
</g>
<!-- n13&#45;&#45;n14 -->
<g id="edge3" class="edge">
<title>n13&#45;&#45;n14</title>
<path fill="none" stroke="black" d="M135.32,-49.47C111.7,-74.42 72.39,-115.93 48.64,-141.01"/>
</g>
<!-- n13&#45;&#45;n15 -->
<g id="edge2" class="edge">
<title>n13&#45;&#45;n15</title>
<path fill="none" stroke="black" d="M171.75,-52.27C200.2,-92.69 257.82,-174.55 286.24,-214.92"/>
</g>
<!-- n12 -->
<g id="node4" class="node">
<title>n12</title>
<ellipse fill="none" stroke="black" cx="107.27" cy="-310.12" rx="28.7" ry="28.7"/>
<text text-anchor="middle" x="107.27" y="-306.42" font-family="Times,serif" font-size="14.00">n12</text>
</g>
<!-- n12&#45;&#45;n14 -->
<g id="edge5" class="edge">
<title>n12&#45;&#45;n14</title>
<path fill="none" stroke="black" d="M93.75,-284.69C79.34,-257.59 56.65,-214.93 42.21,-187.77"/>
</g>
<!-- n12&#45;&#45;n15 -->
<g id="edge4" class="edge">
<title>n12&#45;&#45;n15</title>
<path fill="none" stroke="black" d="M134.46,-300.17C171.83,-286.48 238.63,-262.01 275.87,-248.37"/>
</g>
<!-- n12&#45;&#45;n13 -->
<g id="edge6" class="edge">
<title>n12&#45;&#45;n13</title>
<path fill="none" stroke="black" d="M112.07,-281.84C121.24,-227.88 141.12,-110.81 150.28,-56.86"/>
</g>
<!-- n11 -->
<g id="node5" class="node">
<title>n11</title>
<ellipse fill="none" stroke="black" cx="205.88" cy="-245.33" rx="28.7" ry="28.7"/>
<text text-anchor="middle" x="205.88" y="-241.63" font-family="Times,serif" font-size="14.00">n11</text>
</g>
<!-- n11&#45;&#45;n14 -->
<g id="edge8" class="edge">
<title>n11&#45;&#45;n14</title>
<path fill="none" stroke="black" d="M179.73,-233.06C146.11,-217.3 88.1,-190.09 54.58,-174.36"/>
</g>
<!-- n11&#45;&#45;n15 -->
<g id="edge7" class="edge">
<title>n11&#45;&#45;n15</title>
<path fill="none" stroke="black" d="M234.45,-243.32C246.96,-242.44 261.61,-241.41 274.14,-240.52"/>
</g>
<!-- n11&#45;&#45;n13 -->
<g id="edge9" class="edge">
<title>n11&#45;&#45;n13</title>
<path fill="none" stroke="black" d="M199.35,-217.44C189.62,-175.94 171.44,-98.36 161.68,-56.72"/>
</g>
<!-- n11&#45;&#45;n12 -->
<g id="edge10" class="edge">
<title>n11&#45;&#45;n12</title>
<path fill="none" stroke="black" d="M181.76,-261.18C166.48,-271.22 146.79,-284.16 131.49,-294.21"/>
</g>
<!-- n10 -->
<g id="node6" class="node">
<title>n10</title>
<ellipse fill="none" stroke="black" cx="118.09" cy="-233.6" rx="28.7" ry="28.7"/>
<text text-anchor="middle" x="118.09" y="-229.9" font-family="Times,serif" font-size="14.00">n10</text>
</g>
<!-- n10&#45;&#45;n14 -->
<g id="edge12" class="edge">
<title>n10&#45;&#45;n14</title>
<path fill="none" stroke="black" d="M95.5,-215.58C81.94,-204.75 64.74,-191.02 51.17,-180.19"/>
</g>
<!-- n10&#45;&#45;n15 -->
<g id="edge11" class="edge">
<title>n10&#45;&#45;n15</title>
<path fill="none" stroke="black" d="M146.95,-234.37C181.66,-235.29 239.55,-236.82 274.17,-237.74"/>
</g>
<!-- n10&#45;&#45;n13 -->
<g id="edge13" class="edge">
<title>n10&#45;&#45;n13</title>
<path fill="none" stroke="black" d="M123.23,-205.1C130.3,-165.93 142.94,-95.9 149.98,-56.86"/>
</g>
<!-- n10&#45;&#45;n12 -->
<g id="edge14" class="edge">
<title>n10&#45;&#45;n12</title>
<path fill="none" stroke="black" d="M114.06,-262.1C113.16,-268.47 112.2,-275.23 111.3,-281.61"/>
</g>
<!-- n10&#45;&#45;n11 -->
<g id="edge15" class="edge">
<title>n10&#45;&#45;n11</title>
<path fill="none" stroke="black" d="M146.83,-237.44C156.64,-238.75 167.59,-240.22 177.37,-241.52"/>
</g>
<!-- n9 -->
<g id="node7" class="node">
<title>n9</title>
<ellipse fill="none" stroke="black" cx="71.39" cy="-73.45" rx="23" ry="23"/>
<text text-anchor="middle" x="71.39" y="-69.75" font-family="Times,serif" font-size="14.00">n9</text>
</g>
<!-- n9&#45;&#45;n14 -->
<g id="edge17" class="edge">
<title>n9&#45;&#45;n14</title>
<path fill="none" stroke="black" d="M61.46,-94.03C55.39,-106.63 47.57,-122.85 41.08,-136.31"/>
</g>
<!-- n9&#45;&#45;n15 -->
<g id="edge16" class="edge">
<title>n9&#45;&#45;n15</title>
<path fill="none" stroke="black" d="M89.94,-86.68C131.77,-116.51 233.4,-188.99 279.46,-221.83"/>
</g>
<!-- n9&#45;&#45;n13 -->
<g id="edge18" class="edge">
<title>n9&#45;&#45;n13</title>
<path fill="none" stroke="black" d="M91.65,-62.6C103.07,-56.48 117.44,-48.78 129.61,-42.25"/>
</g>
<!-- n9&#45;&#45;n12 -->
<g id="edge19" class="edge">
<title>n9&#45;&#45;n12</title>
<path fill="none" stroke="black" d="M74.83,-96.15C81.41,-139.53 95.75,-234.15 102.96,-281.68"/>
</g>
<!-- n9&#45;&#45;n11 -->
<g id="edge20" class="edge">
<title>n9&#45;&#45;n11</title>
<path fill="none" stroke="black" d="M85.53,-91.52C110.21,-123.07 161.11,-188.11 188.13,-222.64"/>
</g>
<!-- n9&#45;&#45;n10 -->
<g id="edge21" class="edge">
<title>n9&#45;&#45;n10</title>
<path fill="none" stroke="black" d="M77.78,-95.39C86.18,-124.17 100.91,-174.7 110.05,-206.04"/>
</g>
<!-- n8 -->
<g id="node8" class="node">
<title>n8</title>
<ellipse fill="none" stroke="black" cx="301.54" cy="-100.79" rx="23" ry="23"/>
<text text-anchor="middle" x="301.54" y="-97.09" font-family="Times,serif" font-size="14.00">n8</text>
</g>
<!-- n8&#45;&#45;n14 -->
<g id="edge23" class="edge">
<title>n8&#45;&#45;n14</title>
<path fill="none" stroke="black" d="M279.2,-105.81C229.8,-116.92 111.36,-143.56 56.88,-155.82"/>
</g>
<!-- n8&#45;&#45;n15 -->
<g id="edge22" class="edge">
<title>n8&#45;&#45;n15</title>
<path fill="none" stroke="black" d="M301.76,-123.84C301.98,-147.42 302.32,-184.12 302.56,-209.63"/>
</g>
<!-- n8&#45;&#45;n13 -->
<g id="edge24" class="edge">
<title>n8&#45;&#45;n13</title>
<path fill="none" stroke="black" d="M280.87,-90.6C254.61,-77.66 209.3,-55.32 180.83,-41.29"/>
</g>
<!-- n8&#45;&#45;n12 -->
<g id="edge25" class="edge">
<title>n8&#45;&#45;n12</title>
<path fill="none" stroke="black" d="M285.97,-117.57C250.85,-155.4 165.55,-247.32 126.89,-288.98"/>
</g>
<!-- n8&#45;&#45;n11 -->
<g id="edge26" class="edge">
<title>n8&#45;&#45;n11</title>
<path fill="none" stroke="black" d="M288.84,-119.98C271.56,-146.09 240.65,-192.8 221.83,-221.24"/>
</g>
<!-- n8&#45;&#45;n10 -->
<g id="edge27" class="edge">
<title>n8&#45;&#45;n10</title>
<path fill="none" stroke="black" d="M282.94,-114.25C249.23,-138.65 178.15,-190.12 141.32,-216.78"/>
</g>
<!-- n8&#45;&#45;n9 -->
<g id="edge28" class="edge">
<title>n8&#45;&#45;n9</title>
<path fill="none" stroke="black" d="M278.63,-98.07C234.51,-92.83 138.25,-81.39 94.21,-76.16"/>
</g>
<!-- n7 -->
<g id="node9" class="node">
<title>n7</title>
<ellipse fill="none" stroke="black" cx="95.53" cy="-144.34" rx="23" ry="23"/>
<text text-anchor="middle" x="95.53" y="-140.64" font-family="Times,serif" font-size="14.00">n7</text>
</g>
<!-- n7&#45;&#45;n14 -->
<g id="edge30" class="edge">
<title>n7&#45;&#45;n14</title>
<path fill="none" stroke="black" d="M73.24,-150.28C67.92,-151.7 62.17,-153.23 56.62,-154.71"/>
</g>
<!-- n7&#45;&#45;n15 -->
<g id="edge29" class="edge">
<title>n7&#45;&#45;n15</title>
<path fill="none" stroke="black" d="M116.55,-153.88C154.63,-171.18 234.96,-207.67 276.59,-226.58"/>
</g>
<!-- n7&#45;&#45;n13 -->
<g id="edge31" class="edge">
<title>n7&#45;&#45;n13</title>
<path fill="none" stroke="black" d="M106.04,-123.91C116.06,-104.44 131.17,-75.07 141.97,-54.08"/>
</g>
<!-- n7&#45;&#45;n12 -->
<g id="edge32" class="edge">
<title>n7&#45;&#45;n12</title>
<path fill="none" stroke="black" d="M97.14,-167.04C99.25,-196.84 102.95,-249.15 105.25,-281.59"/>
</g>
<!-- n7&#45;&#45;n11 -->
<g id="edge33" class="edge">
<title>n7&#45;&#45;n11</title>
<path fill="none" stroke="black" d="M112.77,-160.12C132.17,-177.87 163.69,-206.72 184.61,-225.86"/>
</g>
<!-- n7&#45;&#45;n10 -->
<g id="edge34" class="edge">
<title>n7&#45;&#45;n10</title>
<path fill="none" stroke="black" d="M101.1,-166.4C104.1,-178.28 107.84,-193.04 111.04,-205.71"/>
</g>
<!-- n7&#45;&#45;n9 -->
<g id="edge35" class="edge">
<title>n7&#45;&#45;n9</title>
<path fill="none" stroke="black" d="M88.15,-122.68C85.22,-114.05 81.84,-104.13 78.88,-95.46"/>
</g>
<!-- n7&#45;&#45;n8 -->
<g id="edge36" class="edge">
<title>n7&#45;&#45;n8</title>
<path fill="none" stroke="black" d="M117.97,-139.59C157.59,-131.22 239.52,-113.9 279.13,-105.53"/>
</g>
<!-- n6 -->
<g id="node10" class="node">
<title>n6</title>
<ellipse fill="none" stroke="black" cx="244.12" cy="-48.46" rx="23" ry="23"/>
<text text-anchor="middle" x="244.12" y="-44.76" font-family="Times,serif" font-size="14.00">n6</text>
</g>
<!-- n6&#45;&#45;n14 -->
<g id="edge38" class="edge">
<title>n6&#45;&#45;n14</title>
<path fill="none" stroke="black" d="M223.84,-59.16C184.34,-80 97.15,-126.01 53.92,-148.82"/>
</g>
<!-- n6&#45;&#45;n15 -->
<g id="edge37" class="edge">
<title>n6&#45;&#45;n15</title>
<path fill="none" stroke="black" d="M250.86,-70.26C261.61,-105.07 282.64,-173.13 294.39,-211.15"/>
</g>
<!-- n6&#45;&#45;n13 -->
<g id="edge39" class="edge">
<title>n6&#45;&#45;n13</title>
<path fill="none" stroke="black" d="M221.65,-43.45C210.01,-40.85 195.67,-37.65 183.29,-34.89"/>
</g>
<!-- n6&#45;&#45;n12 -->
<g id="edge40" class="edge">
<title>n6&#45;&#45;n12</title>
<path fill="none" stroke="black" d="M233.38,-69C208.62,-116.34 147.57,-233.07 120.53,-284.78"/>
</g>
<!-- n6&#45;&#45;n11 -->
<g id="edge41" class="edge">
<title>n6&#45;&#45;n11</title>
<path fill="none" stroke="black" d="M239.73,-71.05C232.73,-107.1 219.04,-177.61 211.39,-217"/>
</g>
<!-- n6&#45;&#45;n10 -->
<g id="edge42" class="edge">
<title>n6&#45;&#45;n10</title>
<path fill="none" stroke="black" d="M231.11,-67.58C207.9,-101.67 159.44,-172.86 134.18,-209.96"/>
</g>
<!-- n6&#45;&#45;n9 -->
<g id="edge43" class="edge">
<title>n6&#45;&#45;n9</title>
<path fill="none" stroke="black" d="M221.54,-51.73C188.43,-56.52 127.08,-65.4 93.98,-70.19"/>
</g>
<!-- n6&#45;&#45;n8 -->
<g id="edge44" class="edge">
<title>n6&#45;&#45;n8</title>
<path fill="none" stroke="black" d="M261.04,-63.88C268.45,-70.63 277.13,-78.54 284.54,-85.3"/>
</g>
<!-- n6&#45;&#45;n7 -->
<g id="edge45" class="edge">
<title>n6&#45;&#45;n7</title>
<path fill="none" stroke="black" d="M225,-60.8C196.62,-79.11 143.65,-113.29 115.05,-131.74"/>
</g>
<!-- n5 -->
<g id="node11" class="node">
<title>n5</title>
<ellipse fill="none" stroke="black" cx="166.2" cy="-90.88" rx="23" ry="23"/>
<text text-anchor="middle" x="166.2" y="-87.18" font-family="Times,serif" font-size="14.00">n5</text>
</g>
<!-- n5&#45;&#45;n14 -->
<g id="edge47" class="edge">
<title>n5&#45;&#45;n14</title>
<path fill="none" stroke="black" d="M145.9,-101.4C121.53,-114.03 80.63,-135.22 54.14,-148.94"/>
</g>
<!-- n5&#45;&#45;n15 -->
<g id="edge46" class="edge">
<title>n5&#45;&#45;n15</title>
<path fill="none" stroke="black" d="M181.87,-107.81C206.97,-134.93 256.11,-188.02 283.4,-217.5"/>
</g>
<!-- n5&#45;&#45;n13 -->
<g id="edge48" class="edge">
<title>n5&#45;&#45;n13</title>
<path fill="none" stroke="black" d="M162.19,-68.4C161.52,-64.63 160.81,-60.69 160.12,-56.8"/>
</g>
<!-- n5&#45;&#45;n12 -->
<g id="edge49" class="edge">
<title>n5&#45;&#45;n12</title>
<path fill="none" stroke="black" d="M160.23,-113.11C149.4,-153.39 126.57,-238.34 114.73,-282.36"/>
</g>
<!-- n5&#45;&#45;n11 -->
<g id="edge50" class="edge">
<title>n5&#45;&#45;n11</title>
<path fill="none" stroke="black" d="M171.89,-113.01C178.96,-140.54 191.04,-187.55 198.73,-217.49"/>
</g>
<!-- n5&#45;&#45;n10 -->
<g id="edge51" class="edge">
<title>n5&#45;&#45;n10</title>
<path fill="none" stroke="black" d="M158.89,-112.56C150.43,-137.67 136.47,-179.07 127.28,-206.34"/>
</g>
<!-- n5&#45;&#45;n9 -->
<g id="edge52" class="edge">
<title>n5&#45;&#45;n9</title>
<path fill="none" stroke="black" d="M143.73,-86.75C128.73,-83.99 109.06,-80.38 94.03,-77.62"/>
</g>
<!-- n5&#45;&#45;n8 -->
<g id="edge53" class="edge">
<title>n5&#45;&#45;n8</title>
<path fill="none" stroke="black" d="M189.16,-92.56C214.05,-94.38 253.54,-97.27 278.47,-99.1"/>
</g>
<!-- n5&#45;&#45;n7 -->
<g id="edge54" class="edge">
<title>n5&#45;&#45;n7</title>
<path fill="none" stroke="black" d="M148,-104.65C137.53,-112.57 124.41,-122.49 113.91,-130.43"/>
</g>
<!-- n5&#45;&#45;n6 -->
<g id="edge55" class="edge">
<title>n5&#45;&#45;n6</title>
<path fill="none" stroke="black" d="M186.27,-79.96C197.9,-73.62 212.5,-65.68 224.12,-59.35"/>
</g>
<!-- n4 -->
<g id="node12" class="node">
<title>n4</title>
<ellipse fill="none" stroke="black" cx="44.34" cy="-245.63" rx="23" ry="23"/>
<text text-anchor="middle" x="44.34" y="-241.93" font-family="Times,serif" font-size="14.00">n4</text>
</g>
<!-- n4&#45;&#45;n14 -->
<g id="edge57" class="edge">
<title>n4&#45;&#45;n14</title>
<path fill="none" stroke="black" d="M40.12,-223.27C38.21,-213.13 35.93,-201.03 33.9,-190.28"/>
</g>
<!-- n4&#45;&#45;n15 -->
<g id="edge56" class="edge">
<title>n4&#45;&#45;n15</title>
<path fill="none" stroke="black" d="M67.28,-245C114.48,-243.7 222.37,-240.72 274.12,-239.29"/>
</g>
<!-- n4&#45;&#45;n13 -->
<g id="edge58" class="edge">
<title>n4&#45;&#45;n13</title>
<path fill="none" stroke="black" d="M54.76,-225.22C75.06,-185.43 119.86,-97.63 142.07,-54.1"/>
</g>
<!-- n4&#45;&#45;n12 -->
<g id="edge59" class="edge">
<title>n4&#45;&#45;n12</title>
<path fill="none" stroke="black" d="M60.55,-262.24C68.71,-270.6 78.67,-280.81 87.3,-289.65"/>
</g>
<!-- n4&#45;&#45;n11 -->
<g id="edge60" class="edge">
<title>n4&#45;&#45;n11</title>
<path fill="none" stroke="black" d="M67.15,-245.59C96.02,-245.54 145.78,-245.45 177.21,-245.39"/>
</g>
<!-- n4&#45;&#45;n10 -->
<g id="edge61" class="edge">
<title>n4&#45;&#45;n10</title>
<path fill="none" stroke="black" d="M66.87,-241.96C74.07,-240.78 82.13,-239.47 89.7,-238.23"/>
</g>
<!-- n4&#45;&#45;n9 -->
<g id="edge62" class="edge">
<title>n4&#45;&#45;n9</title>
<path fill="none" stroke="black" d="M47.88,-223.13C53.06,-190.13 62.67,-128.97 67.85,-95.97"/>
</g>
<!-- n4&#45;&#45;n8 -->
<g id="edge63" class="edge">
<title>n4&#45;&#45;n8</title>
<path fill="none" stroke="black" d="M64.52,-234.27C112.6,-207.19 233.47,-139.12 281.45,-112.1"/>
</g>
<!-- n4&#45;&#45;n7 -->
<g id="edge64" class="edge">
<title>n4&#45;&#45;n7</title>
<path fill="none" stroke="black" d="M54.7,-225.14C63.58,-207.56 76.31,-182.37 85.19,-164.81"/>
</g>
<!-- n4&#45;&#45;n6 -->
<g id="edge65" class="edge">
<title>n4&#45;&#45;n6</title>
<path fill="none" stroke="black" d="M60.69,-229.5C98.25,-192.43 190.32,-101.56 227.83,-64.55"/>
</g>
<!-- n4&#45;&#45;n5 -->
<g id="edge66" class="edge">
<title>n4&#45;&#45;n5</title>
<path fill="none" stroke="black" d="M58.56,-227.58C82.04,-197.76 128.65,-138.56 152.07,-108.82"/>
</g>
<!-- n3 -->
<g id="node13" class="node">
<title>n3</title>
<ellipse fill="none" stroke="black" cx="323.97" cy="-174.11" rx="23" ry="23"/>
<text text-anchor="middle" x="323.97" y="-170.41" font-family="Times,serif" font-size="14.00">n3</text>
</g>
<!-- n3&#45;&#45;n14 -->
<g id="edge68" class="edge">
<title>n3&#45;&#45;n14</title>
<path fill="none" stroke="black" d="M300.79,-173.18C247.35,-171.02 115.58,-165.69 57.21,-163.33"/>
</g>
<!-- n3&#45;&#45;n15 -->
<g id="edge67" class="edge">
<title>n3&#45;&#45;n15</title>
<path fill="none" stroke="black" d="M316.82,-195.91C315.24,-200.73 313.54,-205.89 311.9,-210.9"/>
</g>
<!-- n3&#45;&#45;n13 -->
<g id="edge69" class="edge">
<title>n3&#45;&#45;n13</title>
<path fill="none" stroke="black" d="M306.53,-159.09C275.52,-132.37 210.85,-76.65 176.92,-47.42"/>
</g>
<!-- n3&#45;&#45;n12 -->
<g id="edge70" class="edge">
<title>n3&#45;&#45;n12</title>
<path fill="none" stroke="black" d="M304.36,-186.42C264.66,-211.34 174.91,-267.67 131.58,-294.87"/>
</g>
<!-- n3&#45;&#45;n11 -->
<g id="edge71" class="edge">
<title>n3&#45;&#45;n11</title>
<path fill="none" stroke="black" d="M304.47,-185.88C284.3,-198.04 252.72,-217.09 230.76,-230.33"/>
</g>
<!-- n3&#45;&#45;n10 -->
<g id="edge72" class="edge">
<title>n3&#45;&#45;n10</title>
<path fill="none" stroke="black" d="M301.94,-180.48C264.18,-191.39 187.18,-213.64 145.83,-225.59"/>
</g>
<!-- n3&#45;&#45;n9 -->
<g id="edge73" class="edge">
<title>n3&#45;&#45;n9</title>
<path fill="none" stroke="black" d="M302.44,-165.53C254.72,-146.52 140.54,-101.01 92.87,-82.02"/>
</g>
<!-- n3&#45;&#45;n8 -->
<g id="edge74" class="edge">
<title>n3&#45;&#45;n8</title>
<path fill="none" stroke="black" d="M317.24,-152.11C314.4,-142.83 311.1,-132.05 308.26,-122.77"/>
</g>
<!-- n3&#45;&#45;n7 -->
<g id="edge75" class="edge">
<title>n3&#45;&#45;n7</title>
<path fill="none" stroke="black" d="M301.23,-171.15C257.44,-165.44 161.89,-152.99 118.18,-147.29"/>
</g>
<!-- n3&#45;&#45;n6 -->
<g id="edge76" class="edge">
<title>n3&#45;&#45;n6</title>
<path fill="none" stroke="black" d="M311.67,-154.76C296.71,-131.21 271.59,-91.7 256.57,-68.05"/>
</g>
<!-- n3&#45;&#45;n5 -->
<g id="edge77" class="edge">
<title>n3&#45;&#45;n5</title>
<path fill="none" stroke="black" d="M303.67,-163.4C273.37,-147.42 216.67,-117.51 186.43,-101.55"/>
</g>
<!-- n3&#45;&#45;n4 -->
<g id="edge78" class="edge">
<title>n3&#45;&#45;n4</title>
<path fill="none" stroke="black" d="M301.56,-179.85C249.07,-193.27 118.68,-226.62 66.47,-239.97"/>
</g>
<!-- n2 -->
<g id="node14" class="node">
<title>n2</title>
<ellipse fill="none" stroke="black" cx="265.23" cy="-300.09" rx="23" ry="23"/>
<text text-anchor="middle" x="265.23" y="-296.39" font-family="Times,serif" font-size="14.00">n2</text>
</g>
<!-- n2&#45;&#45;n14 -->
<g id="edge80" class="edge">
<title>n2&#45;&#45;n14</title>
<path fill="none" stroke="black" d="M245.46,-288.57C202.47,-263.52 100.57,-204.13 53.38,-176.62"/>
</g>
<!-- n2&#45;&#45;n15 -->
<g id="edge79" class="edge">
<title>n2&#45;&#45;n15</title>
<path fill="none" stroke="black" d="M277.13,-280.6C280.49,-275.11 284.18,-269.05 287.7,-263.29"/>
</g>
<!-- n2&#45;&#45;n13 -->
<g id="edge81" class="edge">
<title>n2&#45;&#45;n13</title>
<path fill="none" stroke="black" d="M256.59,-278.79C236.71,-229.79 187.77,-109.16 165.92,-55.31"/>
</g>
<!-- n2&#45;&#45;n12 -->
<g id="edge82" class="edge">
<title>n2&#45;&#45;n12</title>
<path fill="none" stroke="black" d="M242.26,-301.55C214.11,-303.34 166.4,-306.37 135.89,-308.31"/>
</g>
<!-- n2&#45;&#45;n11 -->
<g id="edge83" class="edge">
<title>n2&#45;&#45;n11</title>
<path fill="none" stroke="black" d="M248.38,-284.55C241.8,-278.48 234.18,-271.44 227.23,-265.02"/>
</g>
<!-- n2&#45;&#45;n10 -->
<g id="edge84" class="edge">
<title>n2&#45;&#45;n10</title>
<path fill="none" stroke="black" d="M244.46,-290.71C218.16,-278.82 172.83,-258.34 144.21,-245.41"/>
</g>
<!-- n2&#45;&#45;n9 -->
<g id="edge85" class="edge">
<title>n2&#45;&#45;n9</title>
<path fill="none" stroke="black" d="M250.34,-282.68C214.26,-240.5 122.46,-133.17 86.33,-90.92"/>
</g>
<!-- n2&#45;&#45;n8 -->
<g id="edge86" class="edge">
<title>n2&#45;&#45;n8</title>
<path fill="none" stroke="black" d="M269.32,-277.62C276.32,-239.24 290.48,-161.5 297.46,-123.18"/>
</g>
<!-- n2&#45;&#45;n7 -->
<g id="edge87" class="edge">
<title>n2&#45;&#45;n7</title>
<path fill="none" stroke="black" d="M248.34,-284.59C215.81,-254.73 144.83,-189.58 112.35,-159.78"/>
</g>
<!-- n2&#45;&#45;n6 -->
<g id="edge88" class="edge">
<title>n2&#45;&#45;n6</title>
<path fill="none" stroke="black" d="M263.32,-277.32C259.31,-229.53 250.06,-119.27 246.04,-71.37"/>
</g>
<!-- n2&#45;&#45;n5 -->
<g id="edge89" class="edge">
<title>n2&#45;&#45;n5</title>
<path fill="none" stroke="black" d="M255.37,-279.27C236.39,-239.16 194.97,-151.66 176.02,-111.62"/>
</g>
<!-- n2&#45;&#45;n4 -->
<g id="edge90" class="edge">
<title>n2&#45;&#45;n4</title>
<path fill="none" stroke="black" d="M242.83,-294.57C200.39,-284.11 108.71,-261.5 66.47,-251.09"/>
</g>
<!-- n2&#45;&#45;n3 -->
<g id="edge91" class="edge">
<title>n2&#45;&#45;n3</title>
<path fill="none" stroke="black" d="M274.93,-279.29C285.81,-255.95 303.37,-218.3 314.26,-194.95"/>
</g>
<!-- n1 -->
<g id="node15" class="node">
<title>n1</title>
<ellipse fill="none" stroke="black" cx="185.61" cy="-326.52" rx="23" ry="23"/>
<text text-anchor="middle" x="185.61" y="-322.82" font-family="Times,serif" font-size="14.00">n1</text>
</g>
<!-- n1&#45;&#45;n14 -->
<g id="edge93" class="edge">
<title>n1&#45;&#45;n14</title>
<path fill="none" stroke="black" d="M169.69,-309.85C140.84,-279.66 80.01,-215.98 48.48,-182.99"/>
</g>
<!-- n1&#45;&#45;n15 -->
<g id="edge92" class="edge">
<title>n1&#45;&#45;n15</title>
<path fill="none" stroke="black" d="M203.93,-312.76C224.4,-297.39 257.6,-272.46 279.82,-255.78"/>
</g>
<!-- n1&#45;&#45;n13 -->
<g id="edge94" class="edge">
<title>n1&#45;&#45;n13</title>
<path fill="none" stroke="black" d="M183.27,-303.63C177.76,-249.95 164.04,-116.02 158.01,-57.14"/>
</g>
<!-- n1&#45;&#45;n12 -->
<g id="edge95" class="edge">
<title>n1&#45;&#45;n12</title>
<path fill="none" stroke="black" d="M162.95,-321.77C154.37,-319.98 144.48,-317.91 135.45,-316.02"/>
</g>
<!-- n1&#45;&#45;n11 -->
<g id="edge96" class="edge">
<title>n1&#45;&#45;n11</title>
<path fill="none" stroke="black" d="M191.15,-304.33C193.54,-294.75 196.37,-283.44 198.9,-273.3"/>
</g>
<!-- n1&#45;&#45;n10 -->
<g id="edge97" class="edge">
<title>n1&#45;&#45;n10</title>
<path fill="none" stroke="black" d="M171.95,-307.71C161.31,-293.08 146.49,-272.69 135.09,-257"/>
</g>
<!-- n1&#45;&#45;n9 -->
<g id="edge98" class="edge">
<title>n1&#45;&#45;n9</title>
<path fill="none" stroke="black" d="M176.07,-305.38C154.51,-257.62 102.28,-141.88 80.82,-94.36"/>
</g>
<!-- n1&#45;&#45;n8 -->
<g id="edge99" class="edge">
<title>n1&#45;&#45;n8</title>
<path fill="none" stroke="black" d="M196.1,-306.09C218.12,-263.22 268.92,-164.3 290.99,-121.33"/>
</g>
<!-- n1&#45;&#45;n7 -->
<g id="edge100" class="edge">
<title>n1&#45;&#45;n7</title>
<path fill="none" stroke="black" d="M175.45,-305.97C158.1,-270.89 122.97,-199.84 105.65,-164.81"/>
</g>
<!-- n1&#45;&#45;n6 -->
<g id="edge101" class="edge">
<title>n1&#45;&#45;n6</title>
<path fill="none" stroke="black" d="M190.3,-304.23C201.25,-252.17 228.43,-123.02 239.41,-70.85"/>
</g>
<!-- n1&#45;&#45;n5 -->
<g id="edge102" class="edge">
<title>n1&#45;&#45;n5</title>
<path fill="none" stroke="black" d="M183.71,-303.49C179.99,-258.33 171.78,-158.61 168.08,-113.65"/>
</g>
<!-- n1&#45;&#45;n4 -->
<g id="edge103" class="edge">
<title>n1&#45;&#45;n4</title>
<path fill="none" stroke="black" d="M165.67,-315.1C138.75,-299.68 91.05,-272.38 64.18,-256.99"/>
</g>
<!-- n1&#45;&#45;n3 -->
<g id="edge104" class="edge">
<title>n1&#45;&#45;n3</title>
<path fill="none" stroke="black" d="M200.95,-309.62C227.54,-280.33 281.92,-220.43 308.57,-191.08"/>
</g>
<!-- n1&#45;&#45;n2 -->
<g id="edge105" class="edge">
<title>n1&#45;&#45;n2</title>
<path fill="none" stroke="black" d="M207.37,-319.29C218.6,-315.57 232.27,-311.03 243.5,-307.3"/>
</g>
<!-- n0 -->
<g id="node16" class="node">
<title>n0</title>
<ellipse fill="none" stroke="black" cx="233.98" cy="-149.33" rx="23" ry="23"/>
<text text-anchor="middle" x="233.98" y="-145.63" font-family="Times,serif" font-size="14.00">n0</text>
</g>
<!-- n0&#45;&#45;n14 -->
<g id="edge107" class="edge">
<title>n0&#45;&#45;n14</title>
<path fill="none" stroke="black" d="M211.21,-150.76C173.62,-153.11 98.61,-157.8 57.38,-160.38"/>
</g>
<!-- n0&#45;&#45;n15 -->
<g id="edge106" class="edge">
<title>n0&#45;&#45;n15</title>
<path fill="none" stroke="black" d="M247.91,-167.38C258.68,-181.32 273.65,-200.71 285.25,-215.72"/>
</g>
<!-- n0&#45;&#45;n13 -->
<g id="edge108" class="edge">
<title>n0&#45;&#45;n13</title>
<path fill="none" stroke="black" d="M221.48,-130.2C207.75,-109.19 185.67,-75.41 170.79,-52.63"/>
</g>
<!-- n0&#45;&#45;n12 -->
<g id="edge109" class="edge">
<title>n0&#45;&#45;n12</title>
<path fill="none" stroke="black" d="M219.69,-167.46C196.45,-196.95 150.53,-255.22 125.16,-287.42"/>
</g>
<!-- n0&#45;&#45;n11 -->
<g id="edge110" class="edge">
<title>n0&#45;&#45;n11</title>
<path fill="none" stroke="black" d="M227.46,-171.6C223.44,-185.33 218.25,-203.06 213.97,-217.69"/>
</g>
<!-- n0&#45;&#45;n10 -->
<g id="edge111" class="edge">
<title>n0&#45;&#45;n10</title>
<path fill="none" stroke="black" d="M215.36,-162.87C195.27,-177.48 163.23,-200.77 141.46,-216.6"/>
</g>
<!-- n0&#45;&#45;n9 -->
<g id="edge112" class="edge">
<title>n0&#45;&#45;n9</title>
<path fill="none" stroke="black" d="M213.06,-139.57C181.84,-125 123.4,-97.73 92.23,-83.18"/>
</g>
<!-- n0&#45;&#45;n8 -->
<g id="edge113" class="edge">
<title>n0&#45;&#45;n8</title>
<path fill="none" stroke="black" d="M252.8,-135.81C262.17,-129.08 273.46,-120.96 282.82,-114.24"/>
</g>
<!-- n0&#45;&#45;n7 -->
<g id="edge114" class="edge">
<title>n0&#45;&#45;n7</title>
<path fill="none" stroke="black" d="M211.12,-148.51C185.46,-147.58 144.09,-146.09 118.42,-145.16"/>
</g>
<!-- n0&#45;&#45;n6 -->
<g id="edge115" class="edge">
<title>n0&#45;&#45;n6</title>
<path fill="none" stroke="black" d="M236.25,-126.69C237.91,-110.2 240.15,-87.93 241.82,-71.37"/>
</g>
<!-- n0&#45;&#45;n5 -->
<g id="edge116" class="edge">
<title>n0&#45;&#45;n5</title>
<path fill="none" stroke="black" d="M216.52,-134.28C206.48,-125.62 193.9,-114.77 183.83,-106.09"/>
</g>
<!-- n0&#45;&#45;n4 -->
<g id="edge117" class="edge">
<title>n0&#45;&#45;n4</title>
<path fill="none" stroke="black" d="M213.68,-159.64C177.28,-178.13 101.28,-216.72 64.78,-235.26"/>
</g>
<!-- n0&#45;&#45;n3 -->
<g id="edge118" class="edge">
<title>n0&#45;&#45;n3</title>
<path fill="none" stroke="black" d="M256.22,-155.46C270.17,-159.3 288.08,-164.23 301.98,-168.06"/>
</g>
<!-- n0&#45;&#45;n2 -->
<g id="edge119" class="edge">
<title>n0&#45;&#45;n2</title>
<path fill="none" stroke="black" d="M238.66,-171.9C244.55,-200.32 254.61,-248.87 260.52,-277.37"/>
</g>
<!-- n0&#45;&#45;n1 -->
<g id="edge120" class="edge">
<title>n0&#45;&#45;n1</title>
<path fill="none" stroke="black" d="M227.95,-171.41C218.66,-205.46 200.93,-270.39 191.64,-304.43"/>
</g>
</g>
</svg>
