<?xml version="1.0" standalone="yes"?>
<!-- SVG graphic -->
<svg xmlns='http://www.w3.org/2000/svg' xmlns:xlink='http://www.w3.org/1999/xlink'
 version="1.1">
<rect x="0" y="0" width="6" height="200" stroke="black" stroke-width="1" fill="blue" opacity="1" tooltip="enable"><title>(0,696)</title></rect><rect x="6" y="58.3333" width="6" height="141.667" stroke="black" stroke-width="1" fill="blue" opacity="1" tooltip="enable"><title>(0.0392662,493)</title></rect><rect x="12" y="96.8391" width="6" height="103.161" stroke="black" stroke-width="1" fill="blue" opacity="1" tooltip="enable"><title>(0.0785323,359)</title></rect><rect x="18" y="102.299" width="6" height="97.7011" stroke="black" stroke-width="1" fill="blue" opacity="1" tooltip="enable"><title>(0.117798,340)</title></rect><rect x="24" y="120.977" width="6" height="79.023" stroke="black" stroke-width="1" fill="blue" opacity="1" tooltip="enable"><title>(0.157065,275)</title></rect><rect x="30" y="137.069" width="6" height="62.931" stroke="black" stroke-width="1" fill="blue" opacity="1" tooltip="enable"><title>(0.196331,219)</title></rect><rect x="36" y="133.621" width="6" height="66.3793" stroke="black" stroke-width="1" fill="blue" opacity="1" tooltip="enable"><title>(0.235597,231)</title></rect><rect x="42" y="140.805" width="6" height="59.1954" stroke="black" stroke-width="1" fill="blue" opacity="1" tooltip="enable"><title>(0.274863,206)</title></rect><rect x="48" y="148.563" width="6" height="51.4368" stroke="black" stroke-width="1" fill="blue" opacity="1" tooltip="enable"><title>(0.314129,179)</title></rect><rect x="54" y="153.736" width="6" height="46.2644" stroke="black" stroke-width="1" fill="blue" opacity="1" tooltip="enable"><title>(0.353395,161)</title></rect><rect x="60" y="151.724" width="6" height="48.2759" stroke="black" stroke-width="1" fill="blue" opacity="1" tooltip="enable"><title>(0.392662,168)</title></rect><rect x="66" y="157.759" width="6" height="42.2414" stroke="black" stroke-width="1" fill="blue" opacity="1" tooltip="enable"><title>(0.431928,147)</title></rect><rect x="72" y="163.506" width="6" height="36.4943" stroke="black" stroke-width="1" fill="blue" opacity="1" tooltip="enable"><title>(0.471194,127)</title></rect><rect x="78" y="168.103" width="6" height="31.8966" stroke="black" stroke-width="1" fill="blue" opacity="1" tooltip="enable"><title>(0.51046,111)</title></rect><rect x="84" y="174.713" width="6" height="25.2874" stroke="black" stroke-width="1" fill="blue" opacity="1" tooltip="enable"><title>(0.549726,88)</title></rect><rect x="90" y="172.414" width="6" height="27.5862" stroke="black" stroke-width="1" fill="blue" opacity="1" tooltip="enable"><title>(0.588992,96)</title></rect><rect x="96" y="177.011" width="6" height="22.9885" stroke="black" stroke-width="1" fill="blue" opacity="1" tooltip="enable"><title>(0.628259,80)</title></rect><rect x="102" y="175.575" width="6" height="24.4253" stroke="black" stroke-width="1" fill="blue" opacity="1" tooltip="enable"><title>(0.667525,85)</title></rect><rect x="108" y="177.586" width="6" height="22.4138" stroke="black" stroke-width="1" fill="blue" opacity="1" tooltip="enable"><title>(0.706791,78)</title></rect><rect x="114" y="177.874" width="6" height="22.1264" stroke="black" stroke-width="1" fill="blue" opacity="1" tooltip="enable"><title>(0.746057,77)</title></rect><rect x="120" y="187.356" width="6" height="12.6437" stroke="black" stroke-width="1" fill="blue" opacity="1" tooltip="enable"><title>(0.785323,44)</title></rect><rect x="126" y="184.195" width="6" height="15.8046" stroke="black" stroke-width="1" fill="blue" opacity="1" tooltip="enable"><title>(0.824589,55)</title></rect><rect x="132" y="185.345" width="6" height="14.6552" stroke="black" stroke-width="1" fill="blue" opacity="1" tooltip="enable"><title>(0.863855,51)</title></rect><rect x="138" y="186.494" width="6" height="13.5057" stroke="black" stroke-width="1" fill="blue" opacity="1" tooltip="enable"><title>(0.903122,47)</title></rect><rect x="144" y="184.77" width="6" height="15.2299" stroke="black" stroke-width="1" fill="blue" opacity="1" tooltip="enable"><title>(0.942388,53)</title></rect><rect x="150" y="189.368" width="6" height="10.6322" stroke="black" stroke-width="1" fill="blue" opacity="1" tooltip="enable"><title>(0.981654,37)</title></rect><rect x="156" y="186.207" width="6" height="13.7931" stroke="black" stroke-width="1" fill="blue" opacity="1" tooltip="enable"><title>(1.02092,48)</title></rect><rect x="162" y="189.943" width="6" height="10.0575" stroke="black" stroke-width="1" fill="blue" opacity="1" tooltip="enable"><title>(1.06019,35)</title></rect><rect x="168" y="189.655" width="6" height="10.3448" stroke="black" stroke-width="1" fill="blue" opacity="1" tooltip="enable"><title>(1.09945,36)</title></rect><rect x="174" y="188.506" width="6" height="11.4943" stroke="black" stroke-width="1" fill="blue" opacity="1" tooltip="enable"><title>(1.13872,40)</title></rect><rect x="180" y="190.517" width="6" height="9.48276" stroke="black" stroke-width="1" fill="blue" opacity="1" tooltip="enable"><title>(1.17798,33)</title></rect><rect x="186" y="193.103" width="6" height="6.89655" stroke="black" stroke-width="1" fill="blue" opacity="1" tooltip="enable"><title>(1.21725,24)</title></rect><rect x="192" y="192.241" width="6" height="7.75862" stroke="black" stroke-width="1" fill="blue" opacity="1" tooltip="enable"><title>(1.25652,27)</title></rect><rect x="198" y="191.379" width="6" height="8.62069" stroke="black" stroke-width="1" fill="blue" opacity="1" tooltip="enable"><title>(1.29578,30)</title></rect><rect x="204" y="191.667" width="6" height="8.33333" stroke="black" stroke-width="1" fill="blue" opacity="1" tooltip="enable"><title>(1.33505,29)</title></rect><rect x="210" y="189.655" width="6" height="10.3448" stroke="black" stroke-width="1" fill="blue" opacity="1" tooltip="enable"><title>(1.37432,36)</title></rect><rect x="216" y="192.241" width="6" height="7.75862" stroke="black" stroke-width="1" fill="blue" opacity="1" tooltip="enable"><title>(1.41358,27)</title></rect><rect x="222" y="192.529" width="6" height="7.47126" stroke="black" stroke-width="1" fill="blue" opacity="1" tooltip="enable"><title>(1.45285,26)</title></rect><rect x="228" y="195.402" width="6" height="4.5977" stroke="black" stroke-width="1" fill="blue" opacity="1" tooltip="enable"><title>(1.49211,16)</title></rect><rect x="234" y="195.977" width="6" height="4.02299" stroke="black" stroke-width="1" fill="blue" opacity="1" tooltip="enable"><title>(1.53138,14)</title></rect><rect x="240" y="196.264" width="6" height="3.73563" stroke="black" stroke-width="1" fill="blue" opacity="1" tooltip="enable"><title>(1.57065,13)</title></rect><rect x="246" y="195.115" width="6" height="4.88506" stroke="black" stroke-width="1" fill="blue" opacity="1" tooltip="enable"><title>(1.60991,17)</title></rect><rect x="252" y="195.402" width="6" height="4.5977" stroke="black" stroke-width="1" fill="blue" opacity="1" tooltip="enable"><title>(1.64918,16)</title></rect><rect x="258" y="197.701" width="6" height="2.29885" stroke="black" stroke-width="1" fill="blue" opacity="1" tooltip="enable"><title>(1.68844,8)</title></rect><rect x="264" y="196.839" width="6" height="3.16092" stroke="black" stroke-width="1" fill="blue" opacity="1" tooltip="enable"><title>(1.72771,11)</title></rect><rect x="270" y="196.264" width="6" height="3.73563" stroke="black" stroke-width="1" fill="blue" opacity="1" tooltip="enable"><title>(1.76698,13)</title></rect><rect x="276" y="196.552" width="6" height="3.44828" stroke="black" stroke-width="1" fill="blue" opacity="1" tooltip="enable"><title>(1.80624,12)</title></rect><rect x="282" y="197.414" width="6" height="2.58621" stroke="black" stroke-width="1" fill="blue" opacity="1" tooltip="enable"><title>(1.84551,9)</title></rect><rect x="288" y="196.839" width="6" height="3.16092" stroke="black" stroke-width="1" fill="blue" opacity="1" tooltip="enable"><title>(1.88478,11)</title></rect><rect x="294" y="196.552" width="6" height="3.44828" stroke="black" stroke-width="1" fill="blue" opacity="1" tooltip="enable"><title>(1.92404,12)</title></rect><rect x="300" y="197.126" width="6" height="2.87356" stroke="black" stroke-width="1" fill="blue" opacity="1" tooltip="enable"><title>(1.96331,10)</title></rect><rect x="306" y="197.701" width="6" height="2.29885" stroke="black" stroke-width="1" fill="blue" opacity="1" tooltip="enable"><title>(2.00257,8)</title></rect><rect x="312" y="197.701" width="6" height="2.29885" stroke="black" stroke-width="1" fill="blue" opacity="1" tooltip="enable"><title>(2.04184,8)</title></rect><rect x="318" y="197.989" width="6" height="2.01149" stroke="black" stroke-width="1" fill="blue" opacity="1" tooltip="enable"><title>(2.08111,7)</title></rect><rect x="324" y="198.276" width="6" height="1.72414" stroke="black" stroke-width="1" fill="blue" opacity="1" tooltip="enable"><title>(2.12037,6)</title></rect><rect x="330" y="197.126" width="6" height="2.87356" stroke="black" stroke-width="1" fill="blue" opacity="1" tooltip="enable"><title>(2.15964,10)</title></rect><rect x="336" y="198.563" width="6" height="1.43678" stroke="black" stroke-width="1" fill="blue" opacity="1" tooltip="enable"><title>(2.1989,5)</title></rect><rect x="342" y="197.989" width="6" height="2.01149" stroke="black" stroke-width="1" fill="blue" opacity="1" tooltip="enable"><title>(2.23817,7)</title></rect><rect x="348" y="198.851" width="6" height="1.14943" stroke="black" stroke-width="1" fill="blue" opacity="1" tooltip="enable"><title>(2.27744,4)</title></rect><rect x="354" y="199.425" width="6" height="0.574713" stroke="black" stroke-width="1" fill="blue" opacity="1" tooltip="enable"><title>(2.3167,2)</title></rect><rect x="360" y="198.276" width="6" height="1.72414" stroke="black" stroke-width="1" fill="blue" opacity="1" tooltip="enable"><title>(2.35597,6)</title></rect><rect x="366" y="198.563" width="6" height="1.43678" stroke="black" stroke-width="1" fill="blue" opacity="1" tooltip="enable"><title>(2.39524,5)</title></rect><rect x="372" y="198.563" width="6" height="1.43678" stroke="black" stroke-width="1" fill="blue" opacity="1" tooltip="enable"><title>(2.4345,5)</title></rect><rect x="378" y="199.138" width="6" height="0.862069" stroke="black" stroke-width="1" fill="blue" opacity="1" tooltip="enable"><title>(2.47377,3)</title></rect><rect x="384" y="198.851" width="6" height="1.14943" stroke="black" stroke-width="1" fill="blue" opacity="1" tooltip="enable"><title>(2.51303,4)</title></rect><rect x="390" y="198.563" width="6" height="1.43678" stroke="black" stroke-width="1" fill="blue" opacity="1" tooltip="enable"><title>(2.5523,5)</title></rect><rect x="396" y="199.425" width="6" height="0.574713" stroke="black" stroke-width="1" fill="blue" opacity="1" tooltip="enable"><title>(2.59157,2)</title></rect><rect x="402" y="199.425" width="6" height="0.574713" stroke="black" stroke-width="1" fill="blue" opacity="1" tooltip="enable"><title>(2.63083,2)</title></rect><rect x="408" y="199.138" width="6" height="0.862069" stroke="black" stroke-width="1" fill="blue" opacity="1" tooltip="enable"><title>(2.6701,3)</title></rect><rect x="414" y="199.425" width="6" height="0.574713" stroke="black" stroke-width="1" fill="blue" opacity="1" tooltip="enable"><title>(2.70936,2)</title></rect><rect x="420" y="198.563" width="6" height="1.43678" stroke="black" stroke-width="1" fill="blue" opacity="1" tooltip="enable"><title>(2.74863,5)</title></rect><rect x="426" y="199.713" width="6" height="0.287356" stroke="black" stroke-width="1" fill="blue" opacity="1" tooltip="enable"><title>(2.7879,1)</title></rect><rect x="432" y="199.138" width="6" height="0.862069" stroke="black" stroke-width="1" fill="blue" opacity="1" tooltip="enable"><title>(2.82716,3)</title></rect><rect x="438" y="200" width="6" height="0" stroke="black" stroke-width="1" fill="blue" opacity="1" tooltip="enable"><title>(2.86643,0)</title></rect><rect x="444" y="200" width="6" height="0" stroke="black" stroke-width="1" fill="blue" opacity="1" tooltip="enable"><title>(2.9057,0)</title></rect><rect x="450" y="199.425" width="6" height="0.574713" stroke="black" stroke-width="1" fill="blue" opacity="1" tooltip="enable"><title>(2.94496,2)</title></rect><rect x="456" y="198.563" width="6" height="1.43678" stroke="black" stroke-width="1" fill="blue" opacity="1" tooltip="enable"><title>(2.98423,5)</title></rect><rect x="462" y="199.713" width="6" height="0.287356" stroke="black" stroke-width="1" fill="blue" opacity="1" tooltip="enable"><title>(3.02349,1)</title></rect><rect x="468" y="200" width="6" height="0" stroke="black" stroke-width="1" fill="blue" opacity="1" tooltip="enable"><title>(3.06276,0)</title></rect><rect x="474" y="199.713" width="6" height="0.287356" stroke="black" stroke-width="1" fill="blue" opacity="1" tooltip="enable"><title>(3.10203,1)</title></rect><rect x="480" y="199.713" width="6" height="0.287356" stroke="black" stroke-width="1" fill="blue" opacity="1" tooltip="enable"><title>(3.14129,1)</title></rect><rect x="486" y="199.138" width="6" height="0.862069" stroke="black" stroke-width="1" fill="blue" opacity="1" tooltip="enable"><title>(3.18056,3)</title></rect><rect x="492" y="199.138" width="6" height="0.862069" stroke="black" stroke-width="1" fill="blue" opacity="1" tooltip="enable"><title>(3.21983,3)</title></rect><rect x="498" y="199.713" width="6" height="0.287356" stroke="black" stroke-width="1" fill="blue" opacity="1" tooltip="enable"><title>(3.25909,1)</title></rect><rect x="504" y="200" width="6" height="0" stroke="black" stroke-width="1" fill="blue" opacity="1" tooltip="enable"><title>(3.29836,0)</title></rect><rect x="510" y="199.425" width="6" height="0.574713" stroke="black" stroke-width="1" fill="blue" opacity="1" tooltip="enable"><title>(3.33762,2)</title></rect><rect x="516" y="199.425" width="6" height="0.574713" stroke="black" stroke-width="1" fill="blue" opacity="1" tooltip="enable"><title>(3.37689,2)</title></rect><rect x="522" y="198.851" width="6" height="1.14943" stroke="black" stroke-width="1" fill="blue" opacity="1" tooltip="enable"><title>(3.41616,4)</title></rect><rect x="528" y="199.713" width="6" height="0.287356" stroke="black" stroke-width="1" fill="blue" opacity="1" tooltip="enable"><title>(3.45542,1)</title></rect><rect x="534" y="200" width="6" height="0" stroke="black" stroke-width="1" fill="blue" opacity="1" tooltip="enable"><title>(3.49469,0)</title></rect><rect x="540" y="199.425" width="6" height="0.574713" stroke="black" stroke-width="1" fill="blue" opacity="1" tooltip="enable"><title>(3.53395,2)</title></rect><rect x="546" y="199.138" width="6" height="0.862069" stroke="black" stroke-width="1" fill="blue" opacity="1" tooltip="enable"><title>(3.57322,3)</title></rect><rect x="552" y="200" width="6" height="0" stroke="black" stroke-width="1" fill="blue" opacity="1" tooltip="enable"><title>(3.61249,0)</title></rect><rect x="558" y="200" width="6" height="0" stroke="black" stroke-width="1" fill="blue" opacity="1" tooltip="enable"><title>(3.65175,0)</title></rect><rect x="564" y="199.713" width="6" height="0.287356" stroke="black" stroke-width="1" fill="blue" opacity="1" tooltip="enable"><title>(3.69102,1)</title></rect><rect x="570" y="200" width="6" height="0" stroke="black" stroke-width="1" fill="blue" opacity="1" tooltip="enable"><title>(3.73029,0)</title></rect><rect x="576" y="199.425" width="6" height="0.574713" stroke="black" stroke-width="1" fill="blue" opacity="1" tooltip="enable"><title>(3.76955,2)</title></rect><rect x="582" y="200" width="6" height="0" stroke="black" stroke-width="1" fill="blue" opacity="1" tooltip="enable"><title>(3.80882,0)</title></rect><rect x="588" y="200" width="6" height="0" stroke="black" stroke-width="1" fill="blue" opacity="1" tooltip="enable"><title>(3.84808,0)</title></rect><rect x="594" y="200" width="6" height="0" stroke="black" stroke-width="1" fill="blue" opacity="1" tooltip="enable"><title>(3.88735,0)</title></rect><text x="30" y="240" font-size="20" fill="black">0</text>
<text x="600" y="240" font-size="20" fill="black">3.92662</text>
<polyline points="0,220,600,220" stroke="black" stroke-width="1" fill="none" opacity="1"/>
<text x="720" y="20" font-size="20" fill="black">696</text>
<text x="720" y="200" font-size="20" fill="black">0</text>
<polyline points="660,0,660,200" stroke="black" stroke-width="1" fill="none" opacity="1"/>
</svg>